<svg xmlns="http://www.w3.org/2000/svg" x="0px" y="0px"
width="240" height="240"
viewBox="0 0 172 172"
style=" fill:#000000;"><g transform=""><g fill="none" fill-rule="nonzero" stroke="none" stroke-width="1" stroke-linecap="butt" stroke-linejoin="miter" stroke-miterlimit="10" stroke-dasharray="" stroke-dashoffset="0" font-family="none" font-weight="none" font-size="none" text-anchor="none" style="mix-blend-mode: normal"><path d="M0,172v-172h172v172z" fill="#3498db"></path><g><path d="M108.33984,95.47344c-0.87344,-2.88906 -3.15781,-4.36719 -6.04687,-4.80391c-3.72891,-0.57109 -7.49141,0.13437 -11.22031,0.40313c-4.8375,0.33594 -9.675,0.5375 -14.47891,1.27656v0c-1.98203,2.31797 -2.41875,5.57656 -0.50391,8.12969c2.21719,2.95625 6.21484,3.59453 9.675,3.52734c3.89687,-0.06719 7.79375,-0.43672 11.65703,-0.60469c2.6875,-0.10078 5.50937,-0.40312 7.96172,-1.57891c2.48594,-1.20937 3.7625,-3.56094 2.95625,-6.34922z" fill="#3498db"></path><path d="M129.57109,86.43672c-0.94062,-3.39297 -2.75469,-6.48359 -5.87891,-8.29766c-3.93047,-2.28438 -8.43203,-3.29219 -12.02656,-6.18125c-6.85312,-5.54297 -8.46562,-14.84844 -14.81484,-20.76094c-5.67734,-5.27422 -12.76562,-6.38281 -20.22344,-6.92031c-8.29766,-0.60469 -17.50234,-0.36953 -23.21328,6.41641c0,11.35469 0,22.70938 0.40312,34.06406c0.20156,5.77813 0.47031,11.58984 0.97422,17.36797c0.33594,3.96406 1.17578,8.0625 3.225,11.52266c1.81406,3.09062 4.3,5.67734 7.55859,7.22266c4.33359,2.04922 9.23828,2.48594 13.975,2.41875c5.20703,-0.06719 10.41406,-0.67187 15.5875,-0.50391c4.63594,0.13437 9.20469,0.57109 13.87422,0.03359c4.56875,-0.50391 9.43984,-1.64609 13.26953,-4.3c3.19141,-2.21719 5.375,-5.44219 6.45,-9.17109c1.075,-3.79609 1.44453,-7.72656 1.6125,-11.65703c0.10078,-3.72891 0.20156,-7.62578 -0.77266,-11.25391zM67.85938,68.43047c-4.3,-1.57891 -3.52734,-8.70078 0.10078,-11.69063c4.16563,-3.39297 11.38828,-3.52734 16.39375,-2.15c2.28437,0.63828 4.77031,1.64609 6.21484,3.66172c1.51172,2.18359 1.41094,4.93828 0.23516,7.25625c-1.84766,3.62813 -7.35703,3.09063 -10.81719,3.42656c-2.55312,0.23516 -5.47578,-0.23516 -8.0625,0.16797c-1.31016,-0.20156 -2.58672,-0.36953 -3.89687,-0.40313c-0.06719,-0.06719 -0.13438,-0.16797 -0.16797,-0.26875zM109.85156,103.13281c-2.31797,2.11641 -5.24063,3.09063 -8.29766,3.59453c-3.35937,0.5375 -6.81953,0.40312 -10.2125,0.67188c-4.23281,0.33594 -8.83516,0.80625 -12.9,-0.77266c-3.25859,-1.24297 -6.24844,-3.79609 -7.05469,-7.35703c-0.80625,-3.56094 0.03359,-6.9875 2.58672,-9.675c0.40313,-0.43672 0.90703,-0.60469 1.37734,-0.57109c0.23516,-0.16797 0.5375,-0.30234 0.90703,-0.36953c6.24844,-0.94062 12.59766,-0.97422 18.87969,-1.6125c6.14766,-0.63828 14.84844,-0.16797 16.69609,7.22266c0.73906,3.05703 0.5375,6.58438 -1.98203,8.86875z" fill="#d6e5e5"></path><path d="M87.81406,60.87188c-0.57109,-1.27656 -2.11641,-1.94844 -3.35937,-2.38516c-3.49375,-1.20938 -7.92812,-1.31016 -11.45547,-0.20156c-2.08281,0.63828 -3.89687,1.84766 -4.36719,4.13203c-0.33594,1.74687 -0.20156,2.82187 1.78047,2.58672c0.63828,-0.06719 1.10859,0.13438 1.44453,0.47031c1.64609,-0.13438 3.32578,-0.03359 4.93828,-0.03359c2.75469,-0.03359 5.77813,-0.10078 8.46563,-0.63828c0.20156,-0.03359 1.94844,-0.40313 2.01562,-0.5375c0.23516,-0.43672 0.47031,-0.90703 0.57109,-1.37734c0.16797,-0.67188 0.26875,-1.34375 -0.03359,-2.01563z" fill="#3498db"></path><path d="M160.81328,70.14375c-1.17578,-8.80156 -3.46016,-17.7375 -8.09609,-25.43047c-14.98281,-24.69141 -47.87109,-33.56016 -75.08203,-30.67109c-16.86406,1.78047 -33.325,8.49922 -45.98984,19.95469c-6.75234,6.11406 -12.3625,13.23594 -15.88984,21.70156c-3.52734,8.49922 -4.93828,17.67031 -5.375,26.80781c-0.03359,0.40312 -0.13437,0.73906 -0.33594,1.00781c0.10078,11.08594 2.62031,22.00391 7.02109,32.21641c4.23281,9.84297 10.17891,19.21562 18.03984,26.60625c5.34141,5.03906 11.52266,9.20469 18.44297,11.75781c8.49922,3.12422 17.90547,3.52734 26.84141,3.09063c10.44766,-0.47031 20.79453,-2.18359 31.00703,-4.36719c8.33125,-1.78047 16.72969,-4.19922 24.25469,-8.29766c7.69297,-4.19922 14.5125,-10.04453 18.74531,-17.87187c4.46797,-8.33125 6.48359,-17.63672 7.15547,-26.97578c0.73906,-9.80938 0.5375,-19.82031 -0.73906,-29.52891zM133.80391,100.78125c-0.5375,7.65937 -2.41875,15.85625 -9.10391,20.52578c-7.65938,5.34141 -17.53594,5.84531 -26.53906,5.30781c-10.01094,-0.57109 -20.55938,1.88125 -30.33516,-0.97422c-7.28984,-2.15 -12.69844,-7.49141 -15.08359,-14.71406c-1.31016,-3.99766 -1.67969,-8.0625 -1.94844,-12.22812c-0.36953,-5.40859 -0.60469,-10.85078 -0.77266,-16.29297c-0.33594,-10.95156 -0.33594,-21.93672 -0.33594,-32.88828c0,-1.00781 0.67188,-1.64609 1.44453,-1.84766c4.06484,-4.50156 9.87656,-6.68516 15.88984,-7.15547c3.25859,-0.23516 6.51719,-0.13438 9.77578,0.10078c2.85547,0.20156 5.77812,0.33594 8.6,0.94062c5.27422,1.075 10.31328,3.35938 14.17656,7.18906c2.01563,2.01563 3.7625,4.26641 5.20703,6.75234c1.64609,2.85547 2.98984,5.87891 4.8375,8.63359c2.75469,4.13203 6.21484,6.58438 10.75,8.49922c3.7625,1.57891 7.35703,3.19141 9.84297,6.61797c4.43438,6.11406 4.09844,14.31094 3.59453,21.53359z" fill="#3498db"></path><path d="M165.38203,80.15469c-0.47031,-9.97734 -1.91484,-20.05547 -5.61016,-29.36094c-2.62031,-6.65156 -6.55078,-12.63125 -11.45547,-17.80469c-9.84297,-10.48125 -23.41484,-16.86406 -37.18828,-20.29062c-13.94141,-3.46016 -28.75625,-3.79609 -42.83203,-0.94062c-16.32656,3.32578 -31.54453,11.48906 -43.20156,23.41484c-6.11406,6.28203 -10.81719,13.67266 -13.80703,21.90312c-2.92266,7.99531 -4.09844,16.42734 -4.53516,24.89297c-0.23516,0.30234 -0.36953,0.70547 -0.36953,1.17578c0,15.62109 4.77031,31.04062 12.59766,44.47812c7.45781,12.79922 18.54375,24.1875 32.55234,29.59609c8.26406,3.19141 17.26719,3.86328 26.06875,3.72891c10.41406,-0.13437 20.79453,-1.78047 31.00703,-3.82969c16.79688,-3.35937 34.16484,-8.86875 45.21719,-22.84375c11.75781,-14.91563 12.39609,-35.97891 11.55625,-54.11953zM161.55234,99.63906c-0.70547,9.37266 -2.6875,18.67813 -7.15547,26.97578c-4.19922,7.79375 -11.01875,13.63906 -18.74531,17.87187c-7.525,4.09844 -15.92344,6.51719 -24.25469,8.29766c-10.2125,2.18359 -20.55938,3.89687 -31.00703,4.36719c-8.96953,0.40312 -18.34219,0 -26.84141,-3.09063c-6.92031,-2.55312 -13.10156,-6.71875 -18.44297,-11.75781c-7.86094,-7.39062 -13.80703,-16.72969 -18.03984,-26.60625c-4.40078,-10.17891 -6.92031,-21.09687 -7.02109,-32.21641c0.20156,-0.26875 0.30234,-0.60469 0.33594,-1.00781c0.43672,-9.1375 1.88125,-18.30859 5.375,-26.80781c3.49375,-8.46562 9.1375,-15.5875 15.88984,-21.70156c12.63125,-11.45547 29.09219,-18.14062 45.98984,-19.95469c27.24453,-2.88906 60.13281,6.01328 75.08203,30.70469c4.63594,7.65938 6.92031,16.59531 8.09609,25.43047c1.27656,9.70859 1.47813,19.71953 0.73906,29.49531z" fill="#000000"></path><path d="M130.20938,79.21406c-2.48594,-3.42656 -6.08047,-5.03906 -9.84297,-6.61797c-4.53516,-1.91484 -8.02891,-4.33359 -10.75,-8.49922c-1.84766,-2.75469 -3.19141,-5.77812 -4.8375,-8.63359c-1.41094,-2.48594 -3.19141,-4.73672 -5.20703,-6.75234c-3.82969,-3.82969 -8.90234,-6.08047 -14.17656,-7.18906c-2.82188,-0.57109 -5.71094,-0.73906 -8.6,-0.94062c-3.25859,-0.23516 -6.51719,-0.33594 -9.77578,-0.10078c-6.01328,0.47031 -11.825,2.65391 -15.88984,7.15547c-0.77266,0.20156 -1.44453,0.83984 -1.44453,1.84766c0,10.95156 0,21.93672 0.33594,32.88828c0.16797,5.44219 0.40312,10.85078 0.77266,16.29297c0.26875,4.16562 0.63828,8.23047 1.94844,12.22812c2.38516,7.22266 7.79375,12.56406 15.08359,14.71406c9.77578,2.85547 20.32422,0.40313 30.33516,0.97422c9.00312,0.50391 18.87969,0 26.53906,-5.30781c6.68516,-4.66953 8.56641,-12.86641 9.10391,-20.52578c0.50391,-7.18906 0.83984,-15.38594 -3.59453,-21.53359zM130.31016,97.69063c-0.13438,3.93047 -0.50391,7.86094 -1.6125,11.65703c-1.075,3.72891 -3.29219,6.95391 -6.45,9.17109c-3.82969,2.65391 -8.70078,3.79609 -13.26953,4.3c-4.63594,0.50391 -9.20469,0.10078 -13.87422,-0.03359c-5.20703,-0.16797 -10.41406,0.43672 -15.5875,0.50391c-4.73672,0.06719 -9.64141,-0.36953 -13.975,-2.41875c-3.25859,-1.54531 -5.74453,-4.13203 -7.55859,-7.22266c-2.04922,-3.46016 -2.88906,-7.55859 -3.225,-11.52266c-0.47031,-5.77813 -0.77266,-11.55625 -0.97422,-17.36797c-0.40312,-11.35469 -0.40312,-22.70937 -0.40312,-34.06406c5.71094,-6.81953 14.94922,-7.02109 23.21328,-6.41641c7.45781,0.5375 14.54609,1.64609 20.22344,6.92031c6.34922,5.9125 7.96172,15.21797 14.81484,20.76094c3.59453,2.92266 8.09609,3.89687 12.02656,6.18125c3.12422,1.81406 4.93828,4.90469 5.87891,8.29766c1.00781,3.62813 0.90703,7.525 0.77266,11.25391z" fill="#000000"></path><path d="M111.8,94.26406c-1.84766,-7.39062 -10.51484,-7.86094 -16.69609,-7.22266c-6.28203,0.63828 -12.59766,0.67188 -18.87969,1.6125c-0.36953,0.06719 -0.63828,0.20156 -0.90703,0.36953c-0.47031,0 -0.94063,0.16797 -1.37734,0.57109c-2.51953,2.65391 -3.39297,6.11406 -2.58672,9.675c0.80625,3.56094 3.79609,6.08047 7.05469,7.35703c4.06484,1.57891 8.66719,1.10859 12.9,0.77266c3.39297,-0.26875 6.85312,-0.13437 10.2125,-0.67187c3.05703,-0.47031 5.97969,-1.47812 8.29766,-3.59453c2.55312,-2.28438 2.75469,-5.81172 1.98203,-8.86875zM105.35,101.82266c-2.45234,1.17578 -5.27422,1.47812 -7.96172,1.57891c-3.89688,0.16797 -7.79375,0.5375 -11.65703,0.60469c-3.49375,0.06719 -7.45781,-0.57109 -9.675,-3.52734c-1.91484,-2.55313 -1.47812,-5.84531 0.50391,-8.12969v0c4.80391,-0.73906 9.64141,-0.94062 14.47891,-1.27656c3.72891,-0.23516 7.49141,-0.97422 11.22031,-0.40313c2.92266,0.43672 5.20703,1.91484 6.04688,4.80391c0.83984,2.78828 -0.43672,5.13984 -2.95625,6.34922zM90.53516,58.28516c-1.41094,-2.04922 -3.89688,-3.02344 -6.21484,-3.66172c-5.00547,-1.37734 -12.22813,-1.24297 -16.39375,2.15c-3.62813,2.95625 -4.43438,10.11172 -0.10078,11.69062c0.03359,0.10078 0.10078,0.20156 0.13438,0.30234c1.31016,0.03359 2.62031,0.20156 3.89687,0.40313c2.62031,-0.40313 5.50938,0.06719 8.0625,-0.16797c3.46016,-0.33594 8.96953,0.20156 10.81719,-3.42656c1.20938,-2.38516 1.34375,-5.10625 -0.20156,-7.28984zM87.84766,62.8875c-0.10078,0.47031 -0.36953,0.94063 -0.57109,1.37734c-0.06719,0.13438 -1.78047,0.47031 -2.01562,0.5375c-2.6875,0.57109 -5.71094,0.60469 -8.46562,0.63828c-1.6125,0 -3.32578,-0.10078 -4.93828,0.03359c-0.33594,-0.33594 -0.80625,-0.57109 -1.44453,-0.47031c-1.98203,0.23516 -2.11641,-0.83984 -1.78047,-2.58672c0.43672,-2.28438 2.28438,-3.49375 4.36719,-4.13203c3.52734,-1.10859 7.96172,-1.00781 11.45547,0.20156c1.24297,0.43672 2.78828,1.10859 3.35937,2.38516c0.30234,0.67188 0.20156,1.34375 0.03359,2.01563z" fill="#000000"></path></g><path d="" fill="none"></path></g></g></svg>